<?xml version="1.0" encoding="UTF-8"?>
<svg id="Layer_2" data-name="Layer 2" xmlns="http://www.w3.org/2000/svg" viewBox="0 0 217.09 103.65">
  <defs>
    <style>
      .cls-1, .cls-2 {
        fill: #FFFFFF;
      }

      .cls-1, .cls-3 {
        stroke-width: 0px;
      }

      .cls-2 {
        font-family: Gotham-Light, 'Gotham Light';
        font-size: 12.18px;
        font-weight: 300;
      }

      .cls-3 {
        fill: #c52929;
      }
    </style>
  </defs>
  <g id="Layer_1-2" data-name="Layer 1">
    <path class="cls-3" d="M189.29,44.28c1.75-.05,3.23-.07,4.71-.26,3.97-.51,7.29-2.14,9.67-5.39,1.59-2.17,2.34-4.66,2.58-7.37.36-4.21.56-8.41-.34-12.56-.59-2.69-1.76-5.15-3.93-6.99-3.46-2.92-7.71-3.59-11.95-3.6-33-.09-66.01-.05-99.02-.06-2.69,0-5.36-.02-8.02.56-3.01.66-5.89,1.62-8.2,3.77-3.87,3.57-5,8.17-4.48,13.17.26,2.5,1.49,4.66,3.61,6.33,2.58,2.03,5.59,2.95,8.57,4.05,9.66,3.54,19.31,7.11,28.96,10.68,1.1.41,2.2.84,3.26,1.35.52.25.98.7.86,1.38-.11.65-.61.74-1.2.89-.65.16-1.27.22-1.9.22-15.92,0-31.84,0-47.75,0-1.78,0-1.78,0-1.52-1.82.05-.37.02-.75.02-1.12,0-6.92-.02-13.85,0-20.77.01-2.64,0-5.28-.58-7.87-.71-3.17-2.17-5.88-4.94-7.78-3.35-2.3-7.21-2.95-11.08-2.98-15.54-.12-31.09-.05-46.63-.05v55.02c41.01,0,82.02,0,123.04,0,1.24,0,2.48.01,3.72-.25,3.96-.83,6.65-3.08,8.41-6.71,1.32-2.73,1.38-5.62.99-8.4-.53-3.84-2.36-7.06-6.36-8.52-3.15-1.14-6.27-2.39-9.41-3.57-7.25-2.74-14.5-5.47-21.75-8.2-3.1-1.16-6.19-2.34-9.3-3.48-.9-.33-1.39-.88-1.11-1.83.27-.92,1.06-.86,1.83-.86,17.28,0,34.55.02,51.82-.03,1.23,0,1.41.37,1.41,1.48-.04,13.05-.02,26.1-.05,39.15,0,.95.19,1.26,1.21,1.25,4.82-.06,9.65-.05,14.47,0,.99.01,1.24-.25,1.23-1.23-.05-5.43.01-10.86-.06-16.28-.01-1.14.34-1.38,1.4-1.35,2.48.08,4.96.05,7.44,0,.8-.02,1.39.17,1.95.78,1.74,1.93,3.63,3.74,5.42,5.63,3.77,4,7.77,7.8,11.49,11.86.48.53,1,.55,1.62.55,5.43,0,10.86,0,16.29,0h1.73c-6.14-6.35-12.08-12.5-18.16-18.8M46.03,43.5c-.12,3.34-2.13,5.8-5.49,6.39-5.13.91-10.3.42-15.46.53-2.39.06-4.78-.03-7.16.03-.89.02-1.08-.25-1.08-1.1.04-4.63.02-9.26.02-13.89s.03-8.98-.02-13.47c0-.97.13-1.36,1.26-1.35,6.32.07,12.64-.08,18.96.09,2.56.06,5.25.27,7.19,2.45,1.15,1.29,1.78,2.8,1.81,4.47.07,5.28.16,10.57-.02,15.85M185.14,30.8c-3.19.91-6.45.43-9.67.54-1.31.05-2.62.01-3.93.01-3.36,0-6.73-.04-10.09.02-.98.02-1.38-.13-1.34-1.26.1-2.75.06-5.51.01-8.26-.01-.86.14-1.2,1.12-1.19,6.5.05,12.99-.08,19.49.08,2.36.06,4.91.13,6.81,1.95,1.08,1.03,2.38,2.22,1.92,3.82-.59,2.12-2.06,3.64-4.32,4.29"/>
    <path class="cls-1" d="M209.49,7.92v-.18c.54,0,.68-.17.68-.51v-3.86c0-.31-.14-.43-.68-.43v-.18h2.33c1.11,0,1.69.54,1.69,1.27,0,.67-.44,1.26-1.4,1.31l1.17,2.07c.15.27.35.33.73.33v.18h-.97l-1.42-2.57h-1v1.88c0,.34.19.51.69.51v.18h-1.82ZM210.63,5.17h1.33c.8,0,1.06-.57,1.06-1.14,0-.68-.45-1.09-1.23-1.09h-.64c-.34,0-.52.12-.52.43v1.8Z"/>
    <path class="cls-1" d="M211.75,10.69c-2.95,0-5.34-2.4-5.34-5.34s2.39-5.34,5.34-5.34,5.34,2.4,5.34,5.34-2.39,5.34-5.34,5.34M211.75.56c-2.64,0-4.78,2.14-4.78,4.78s2.14,4.78,4.78,4.78,4.78-2.14,4.78-4.78-2.14-4.78-4.78-4.78"/>
    <path class="cls-1" d="M144.14,75.59c0-1.66.34-2.81,1.03-3.47.69-.66,1.91-.98,3.65-.98h1.65c1.6,0,2.78.27,3.54.82.76.55,1.14,1.39,1.14,2.55v.55h-1.48v-.16c0-.9-.23-1.52-.68-1.87-.45-.35-1.32-.53-2.6-.53h-1.14c-.89,0-1.53.05-1.92.15s-.72.27-1,.5c-.25.22-.42.5-.53.87-.1.36-.16,1.01-.16,1.95v3.7c0,.93.05,1.58.16,1.94.1.36.28.65.53.86.27.23.6.4.98.5.38.1,1.03.15,1.94.15h1.14c.83,0,1.41-.04,1.75-.13.34-.09.64-.23.89-.45.23-.2.39-.47.49-.81.09-.34.14-.93.14-1.77v-.8h-3.61v-1.32h5.09v2.17c0,1.67-.34,2.82-1.03,3.48-.69.65-1.91.98-3.65.98h-1.65c-1.75,0-2.97-.33-3.65-.98-.69-.66-1.03-1.81-1.03-3.48v-4.41Z"/>
    <path class="cls-1" d="M157.82,84.29v-13h5.87c1.46,0,2.47.22,3.02.65.55.43.82,1.2.82,2.31v1.97c0,.68-.14,1.22-.41,1.6-.28.39-.7.63-1.26.73.62.14,1.05.41,1.3.79.25.39.37.99.37,1.82v3.12h-1.5v-2.68c0-.93-.15-1.56-.44-1.89-.29-.33-.87-.49-1.72-.49h-4.61v5.06h-1.43ZM163.4,72.67h-4.15v5.2h4.15c1.08,0,1.79-.14,2.12-.4.34-.27.5-.75.5-1.44v-1.52c0-.7-.16-1.19-.48-1.45s-1.04-.39-2.14-.39"/>
    <path class="cls-1" d="M169.96,75.59c0-1.66.34-2.81,1.03-3.47.69-.66,1.91-.98,3.66-.98h1.64c1.77,0,2.99.32,3.67.97.68.64,1.02,1.81,1.02,3.48v4.41c0,1.67-.34,2.83-1.03,3.48-.69.65-1.91.98-3.66.98h-1.64c-1.75,0-2.97-.33-3.66-.98-.69-.65-1.03-1.81-1.03-3.48v-4.41ZM175.86,72.49h-.8c-.91,0-1.56.05-1.94.15-.38.1-.7.27-.98.5-.26.22-.44.52-.54.89-.11.37-.16,1.02-.16,1.93v3.69c0,.91.05,1.55.16,1.92.11.37.28.67.54.89.27.23.6.4.98.5.38.1,1.03.15,1.94.15h.8c.91,0,1.56-.05,1.95-.15.38-.1.71-.26.99-.5.25-.22.42-.5.53-.86s.15-1.01.15-1.94v-3.7c0-.91-.05-1.56-.16-1.94-.11-.37-.29-.67-.54-.89-.27-.23-.59-.39-.97-.48-.38-.09-1.03-.14-1.95-.14"/>
    <path class="cls-1" d="M183.63,71.29h1.45v8.53c0,.84.05,1.42.13,1.75.09.33.25.6.47.8.23.21.51.36.83.44s.88.13,1.67.13h1.36c.8,0,1.36-.04,1.69-.13s.61-.23.84-.44c.22-.2.37-.46.45-.79.09-.33.13-.92.13-1.77v-8.53h1.45v8.7c0,1.66-.33,2.82-.98,3.47-.66.66-1.81.98-3.47.98h-1.57c-1.66,0-2.82-.33-3.47-.98-.66-.65-.98-1.81-.98-3.47v-8.7Z"/>
    <path class="cls-1" d="M197.18,84.29v-13h5.47c1.46,0,2.47.22,3.02.65.55.44.82,1.21.82,2.32v1.97c0,1.14-.27,1.93-.81,2.37-.55.44-1.55.66-3.03.66h-4.04v5.05h-1.43ZM204.99,76.22v-1.91c0-.63-.15-1.06-.44-1.29-.3-.23-.94-.35-1.92-.35h-4.03v5.2h4.03c.97,0,1.6-.12,1.9-.36.3-.24.45-.67.45-1.29"/>
    <text class="cls-2" transform="translate(0 101.65)"><tspan x="0" y="0">CEMENTING DREAMS SINCE 1988</tspan></text>
  </g>
</svg>